<svg width="176" height="35" viewBox="0 0 176 35" fill="none" xmlns="http://www.w3.org/2000/svg">
<g clip-path="url(#clip0_1446_41236)">
<path d="M5.76641 23.0817C5.76641 25.0937 6.21384 26.6385 6.79865 27.573C7.5654 28.7971 8.70903 29.3157 9.87494 29.3157C11.3787 29.3157 12.7544 28.9474 15.4056 25.3283C17.5295 22.4275 20.0321 18.3558 21.7159 15.8031L24.5676 11.4785C26.5485 8.47513 28.8413 5.13639 31.4702 2.8733C33.6164 1.02618 35.9315 0 38.2614 0C42.1732 0 45.8992 2.23743 48.7509 6.43377C51.8717 11.0296 53.3867 16.8183 53.3867 22.7921C53.3867 26.3435 52.6775 28.9529 51.4707 31.0144C50.3048 33.0081 48.0324 35 44.2098 35V29.3157C47.4829 29.3157 48.2997 26.3471 48.2997 22.9497C48.2997 18.1084 47.1561 12.7356 44.6368 8.8966C42.8489 6.17356 40.532 4.50969 37.983 4.50969C35.226 4.50969 33.0074 6.56204 30.5141 10.2215C29.1885 12.1657 27.8277 14.5351 26.2997 17.2086L24.6177 20.1497C21.2388 26.0631 20.383 27.4099 18.6935 29.6327C15.7323 33.5249 13.2037 35 9.87494 35C5.92608 35 3.42903 33.3123 1.88253 30.7688C0.620084 28.6963 0 25.977 0 22.8783L5.76641 23.0817Z" fill="white"/>
<path d="M4.54688 6.83508C7.19059 2.81283 11.0058 0 15.3816 0C17.9158 0 20.4351 0.740314 23.0659 2.86047C25.9435 5.17853 29.0105 8.99555 32.8368 15.2864L34.2088 17.544C37.5209 22.9901 39.4053 25.7919 40.5081 27.1131C41.9265 28.8099 42.9197 29.3157 44.21 29.3157C47.4831 29.3157 48.3 26.3471 48.3 22.9497L53.3869 22.7921C53.3869 26.3435 52.6777 28.9529 51.4709 31.0144C50.305 33.0081 48.0326 35 44.21 35C41.8336 35 39.7283 34.4906 37.4002 32.3228C35.6105 30.6589 33.5182 27.7031 31.9086 25.0461L27.1205 17.1518C24.7182 13.1901 22.5145 10.2361 21.239 8.89843C19.867 7.45995 18.1033 5.72277 15.2888 5.72277C13.0108 5.72277 11.0763 7.30052 9.45742 9.71387L4.54688 6.83508Z" fill="white"/>
<path d="M15.2886 5.72277C13.0106 5.72277 11.0761 7.30052 9.45721 9.71387C7.1681 13.1241 5.76641 18.2037 5.76641 23.0817C5.76641 25.0937 6.21384 26.6385 6.79865 27.573L1.88253 30.7688C0.620084 28.6963 0 25.977 0 22.8783C0 17.2435 1.56692 11.3704 4.54667 6.83508C7.19038 2.81283 11.0056 0 15.3814 0L15.2886 5.72277Z" fill="white"/>
<path d="M64.5977 1.10693H71.2682L82.6098 21.3593L93.9533 1.10693H100.479V34.3844H95.0375V8.88023L85.0901 26.5415H79.9847L70.0392 8.88023V34.3844H64.5977V1.10693ZM117.529 13.5145C113.627 13.5145 111.277 16.4135 110.714 20.0033H123.959C123.686 16.3054 121.525 13.5145 117.529 13.5145ZM105.319 22.0483C105.319 14.4949 110.265 8.99751 117.624 8.99751C124.863 8.99751 129.185 14.4253 129.185 22.4514V23.9266H110.714C111.369 27.8315 113.995 30.463 118.228 30.463C121.605 30.463 123.715 29.4459 125.717 27.586L128.607 31.0805C125.884 33.5525 122.42 34.9781 118.034 34.9781C110.068 34.9781 105.319 29.2444 105.319 22.0483ZM135.783 13.991H130.774V9.59306H135.783V2.32002H141.033V9.59306H148.643V13.991H141.033V25.1378C141.033 28.9438 142.266 30.2962 145.296 30.2962C146.679 30.2962 147.472 30.1789 148.643 29.9865V34.3368C147.184 34.7436 145.792 34.9305 144.284 34.9305C138.616 34.9305 135.783 31.874 135.783 25.7554V13.991ZM170.751 18.2679C169.696 15.6402 167.344 13.7051 163.887 13.7051C159.394 13.7051 156.519 16.8514 156.519 21.9768C156.519 26.9739 159.166 30.2724 163.672 30.2724C167.214 30.2724 169.743 28.2383 170.751 25.7077V18.2679ZM176.001 34.3844H170.847V30.9137C169.407 32.9569 166.785 34.9781 162.539 34.9781C155.711 34.9781 151.148 29.336 151.148 21.9768C151.148 14.548 155.821 8.99751 162.829 8.99751C166.293 8.99751 169.011 10.3645 170.847 12.7779V9.59306H176.001V34.3844Z" fill="white"/>
</g>
<defs>
<clipPath id="clip0_1446_41236">
<rect width="176" height="35" fill="white"/>
</clipPath>
</defs>
</svg>
