<svg width="187" height="44" viewBox="0 0 187 44" fill="none" xmlns="http://www.w3.org/2000/svg">
<path d="M182.095 26.2409C181.979 26.8251 181.78 27.335 181.498 27.7729C181.215 28.211 180.845 28.5675 180.388 28.8382C179.932 29.1111 179.363 29.2481 178.682 29.2481C178.02 29.2481 177.456 29.1111 176.989 28.8382C176.522 28.5675 176.148 28.2109 175.865 27.7729C175.584 27.335 175.379 26.8251 175.252 26.2409C175.126 25.658 175.063 25.0635 175.063 24.4622C175.063 23.8373 175.123 23.2344 175.238 22.6519C175.355 22.0679 175.555 21.5527 175.837 21.1028C176.118 20.6564 176.489 20.2918 176.946 20.0103C177.401 19.7281 177.971 19.5852 178.653 19.5852C179.314 19.5852 179.873 19.7281 180.329 20.0103C180.788 20.2918 181.161 20.6604 181.453 21.1183C181.746 21.576 181.955 22.0971 182.081 22.68C182.209 23.2642 182.271 23.8582 182.271 24.4622C182.271 25.0636 182.212 25.658 182.095 26.2409ZM186.006 21.4977C185.733 20.516 185.315 19.6544 184.75 18.9147C184.186 18.1757 183.478 17.5815 182.621 17.1347C181.765 16.6864 180.742 16.4637 179.556 16.4637C178.623 16.4637 177.767 16.6477 176.989 17.0175C176.211 17.3875 175.569 17.9811 175.063 18.7984H175.006V16.8712H171.066V37.2458H175.209V30.0948H175.267C175.773 30.8348 176.421 31.3934 177.208 31.7717C177.995 32.1511 178.857 32.342 179.791 32.342C180.899 32.342 181.867 32.1264 182.695 31.6994C183.52 31.2719 184.212 30.6971 184.765 29.9767C185.321 29.2564 185.733 28.4304 186.006 27.4964C186.279 26.5619 186.415 25.5891 186.415 24.5775C186.415 23.5073 186.279 22.4813 186.006 21.4977ZM165.581 26.241C165.463 26.8252 165.263 27.3351 164.982 27.773C164.7 28.2111 164.33 28.5676 163.871 28.8383C163.416 29.1112 162.846 29.2482 162.166 29.2482C161.503 29.2482 160.941 29.1112 160.474 28.8383C160.007 28.5676 159.633 28.211 159.35 27.773C159.068 27.3351 158.864 26.8252 158.737 26.241C158.61 25.6581 158.549 25.0636 158.549 24.4622C158.549 23.8374 158.605 23.2345 158.722 22.652C158.84 22.068 159.038 21.5528 159.321 21.1029C159.602 20.6565 159.972 20.2919 160.431 20.0104C160.887 19.7282 161.455 19.5853 162.137 19.5853C162.797 19.5853 163.359 19.7282 163.814 20.0104C164.271 20.2919 164.647 20.6605 164.938 21.1184C165.229 21.5761 165.438 22.0972 165.565 22.6801C165.692 23.2643 165.754 23.8583 165.754 24.4623C165.754 25.0637 165.697 25.6581 165.581 26.241ZM168.235 18.9149C167.672 18.1759 166.961 17.5817 166.105 17.1349C165.248 16.6866 164.228 16.4639 163.042 16.4639C162.107 16.4639 161.252 16.6479 160.474 17.0177C159.694 17.3878 159.054 17.9813 158.549 18.7986H158.489V16.8714H154.549V37.2461H158.695V30.095H158.751C159.256 30.835 159.905 31.3936 160.693 31.772C161.479 32.1514 162.341 32.3423 163.275 32.3423C164.384 32.3423 165.351 32.1266 166.178 31.6996C167.005 31.2721 167.695 30.6973 168.25 29.9769C168.805 29.2566 169.216 28.4306 169.491 27.4966C169.761 26.5621 169.899 25.5893 169.899 24.5777C169.899 23.5076 169.761 22.4816 169.491 21.4979C169.216 20.5163 168.799 19.6546 168.235 18.9149ZM140.982 23.9066L143.696 16.2587H143.754L146.38 23.9066H140.982ZM141.419 11.1218L133.542 31.9618H138.152L139.785 27.3207H147.577L149.152 31.9618H153.909L146.119 11.1218H141.419ZM133.19 25.3512C132.918 24.8746 132.558 24.4757 132.111 24.1536C131.664 23.8336 131.152 23.5751 130.579 23.3796C130.004 23.1861 129.416 23.022 128.813 22.8852C128.23 22.7484 127.657 22.6219 127.093 22.5049C126.528 22.3875 126.026 22.2564 125.588 22.1114C125.151 21.9651 124.797 21.7766 124.525 21.5411C124.251 21.3082 124.117 21.0071 124.117 20.6368C124.117 20.3255 124.193 20.0776 124.349 19.8924C124.505 19.7085 124.695 19.5669 124.919 19.4686C125.143 19.3721 125.389 19.3093 125.662 19.279C125.934 19.2503 126.188 19.2366 126.421 19.2366C127.16 19.2366 127.802 19.3773 128.348 19.6593C128.891 19.9415 129.194 20.4816 129.251 21.2789H133.19C133.112 20.3455 132.875 19.5723 132.475 18.9577C132.077 18.3457 131.576 17.8541 130.973 17.4849C130.371 17.1151 129.685 16.8529 128.915 16.6968C128.147 16.5409 127.355 16.4639 126.539 16.4639C125.721 16.4639 124.922 16.537 124.146 16.6813C123.367 16.8281 122.667 17.082 122.045 17.4412C121.422 17.8011 120.922 18.2916 120.541 18.9149C120.161 19.5374 119.972 20.3362 119.972 21.3083C119.972 21.9699 120.109 22.5304 120.382 22.9872C120.652 23.4451 121.013 23.823 121.459 24.125C121.908 24.4266 122.419 24.6708 122.992 24.8542C123.566 25.041 124.155 25.2004 124.757 25.3371C126.237 25.6489 127.39 25.9592 128.216 26.2716C129.043 26.5823 129.456 27.0491 129.456 27.6725C129.456 28.0421 129.369 28.3469 129.194 28.5906C129.018 28.8352 128.8 29.0285 128.537 29.1746C128.273 29.3212 127.981 29.4288 127.662 29.4953C127.341 29.564 127.033 29.5984 126.742 29.5984C126.333 29.5984 125.94 29.5493 125.561 29.4523C125.181 29.3549 124.845 29.2038 124.554 28.9994C124.262 28.7955 124.023 28.5332 123.838 28.2113C123.655 27.8899 123.561 27.5072 123.561 27.0585H119.622C119.662 28.0704 119.889 28.9124 120.309 29.5834C120.725 30.2548 121.26 30.7942 121.913 31.2036C122.564 31.6115 123.309 31.9041 124.146 32.0798C124.981 32.2544 125.838 32.3423 126.712 32.3423C127.568 32.3423 128.409 32.2588 129.237 32.0949C130.064 31.929 130.798 31.6417 131.44 31.2323C132.083 30.8244 132.602 30.2846 133.002 29.6128C133.399 28.9405 133.598 28.1089 133.598 27.1163C133.598 26.4147 133.463 25.8277 133.19 25.3512ZM116.063 12.3478H111.919V16.8712H109.41V19.6438H111.919V28.547C111.919 29.3069 112.047 29.9192 112.299 30.3857C112.552 30.8521 112.897 31.2143 113.334 31.4665C113.772 31.7196 114.278 31.8892 114.852 31.9768C115.424 32.0638 116.035 32.1079 116.675 32.1079C117.085 32.1079 117.502 32.0975 117.931 32.0799C118.358 32.0599 118.747 32.0221 119.098 31.962V28.7509C118.902 28.7905 118.699 28.8209 118.484 28.8385C118.271 28.8583 118.047 28.8687 117.813 28.8687C117.114 28.8687 116.646 28.7509 116.412 28.5176C116.18 28.2848 116.063 27.8175 116.063 27.1164V19.6442H119.098V16.8716H116.063L116.063 12.3478ZM104.187 26.123C104.187 26.3584 104.163 26.6696 104.114 27.0581C104.065 27.4484 103.934 27.8313 103.72 28.2109C103.506 28.5903 103.174 28.9175 102.728 29.1886C102.281 29.4619 101.649 29.598 100.831 29.598C100.501 29.598 100.179 29.5688 99.868 29.5093C99.5562 29.4519 99.2847 29.3488 99.0512 29.2034C98.8181 29.0575 98.6326 28.8579 98.4963 28.6048C98.3611 28.3519 98.2921 28.0417 98.2921 27.6721C98.2921 27.2831 98.3611 26.96 98.4963 26.7082C98.6326 26.4564 98.8129 26.2464 99.037 26.0805C99.2597 25.9153 99.5227 25.7842 99.8243 25.6859C100.126 25.5889 100.432 25.5113 100.744 25.4528C101.074 25.3956 101.405 25.3454 101.735 25.3067C102.067 25.2687 102.383 25.2186 102.684 25.1612C102.986 25.1029 103.267 25.0291 103.531 24.9414C103.793 24.8538 104.011 24.7338 104.187 24.5773L104.187 26.123ZM108.33 28.6049V20.7543C108.33 19.8383 108.127 19.1045 107.717 18.5507C107.309 17.9956 106.784 17.5632 106.142 17.2517C105.499 16.9405 104.789 16.7309 104.011 16.6242C103.233 16.5172 102.465 16.464 101.707 16.464C100.871 16.464 100.038 16.5459 99.2125 16.7118C98.3837 16.8771 97.6412 17.1549 96.9794 17.5432C96.3178 17.9324 95.7716 18.4488 95.3461 19.0902C94.9167 19.7322 94.6738 20.5399 94.6158 21.5131H98.7587C98.8366 20.6954 99.1101 20.1112 99.5771 19.7614C100.044 19.4109 100.685 19.2367 101.503 19.2367C101.872 19.2367 102.217 19.2611 102.538 19.3094C102.859 19.3585 103.141 19.4544 103.385 19.6012C103.628 19.747 103.823 19.9508 103.968 20.2143C104.114 20.4767 104.187 20.8326 104.187 21.279C104.206 21.7084 104.079 22.0324 103.808 22.2565C103.535 22.4816 103.166 22.6523 102.699 22.7675C102.232 22.8853 101.697 22.9732 101.093 23.0297C100.49 23.0893 99.8776 23.1686 99.2558 23.2645C98.6327 23.3621 98.0148 23.4932 97.4034 23.6587C96.7907 23.8231 96.2443 24.0725 95.7684 24.4019C95.2913 24.7343 94.9026 25.1763 94.6001 25.7312C94.2992 26.286 94.1488 26.992 94.1488 27.8471C94.1488 28.6253 94.2799 29.2964 94.5425 29.8602C94.805 30.4262 95.1696 30.8912 95.637 31.2615C96.1043 31.6313 96.6485 31.9042 97.2709 32.0798C97.8926 32.2544 98.5642 32.3422 99.2847 32.3422C100.218 32.3422 101.133 32.2055 102.026 31.9344C102.922 31.66 103.701 31.1849 104.362 30.5028C104.381 30.7557 104.415 31.0047 104.463 31.2473C104.512 31.4895 104.576 31.7293 104.654 31.962H108.856C108.662 31.6524 108.524 31.1849 108.447 30.5611C108.369 29.9389 108.33 29.2878 108.33 28.6049ZM91.2598 18.1698C90.852 17.6345 90.2923 17.2168 89.5833 16.9144C88.8723 16.6144 87.9629 16.4637 86.8546 16.4637C86.0763 16.4637 85.279 16.6624 84.461 17.062C83.6444 17.4599 82.973 18.0978 82.4482 18.974H82.3606V11.1216H78.217V31.9616H82.3606V24.0518C82.3606 22.5149 82.6132 21.4112 83.1194 20.7388C83.6246 20.0682 84.4417 19.7321 85.5706 19.7321C86.5622 19.7321 87.253 20.0384 87.6422 20.6522C88.0313 21.2645 88.2257 22.1942 88.2257 23.4389V31.9619H92.3696V22.6803C92.3696 21.7469 92.2861 20.8959 92.1213 20.1258C91.9558 19.3585 91.6688 18.7057 91.2598 18.1698ZM69.3758 25.4826H69.3182L65.7584 11.1219H61.4689L57.8501 25.3076H57.7921L54.4947 11.1219H49.9141L55.4288 31.9619H60.0687L63.5403 17.7763H63.5988L67.1295 31.9619H71.6817L77.2844 11.1219H72.7909L69.3758 25.4826Z" fill="white"/>
<path d="M11.8597 36.2928L12.5089 36.6776C15.2369 38.2965 18.3645 39.1527 21.5539 39.1545H21.5609C31.3559 39.1545 39.3279 31.1843 39.3316 21.3886C39.3332 16.6412 37.4866 12.1778 34.1314 8.81956C30.7759 5.46189 26.3147 3.61148 21.5672 3.60951C11.7648 3.60951 3.79278 11.5784 3.78908 21.3741C3.78779 24.7308 4.7268 28.0001 6.50597 30.8283L6.92885 31.5006L5.13316 38.0563L11.8597 36.2928ZM0 43.1345L3.03324 32.0587C1.1623 28.8172 0.178053 25.14 0.179594 21.3731C0.184155 9.58797 9.77496 0 21.5613 0C27.2806 0.00246525 32.6488 2.22834 36.6856 6.26851C40.722 10.3086 42.9443 15.679 42.9424 21.3903C42.9374 33.1749 33.3446 42.7647 21.5613 42.7647C21.5617 42.7647 21.5604 42.7647 21.5613 42.7647H21.5522C17.9739 42.7634 14.4578 41.8658 11.335 40.1626L0 43.1345Z" fill="white"/>
<mask id="mask0_1446_41265" style="mask-type:alpha" maskUnits="userSpaceOnUse" x="0" y="0" width="43" height="43">
<path d="M0.915248 21.3844C0.913954 25.0206 1.86406 28.5706 3.67066 31.7003L0.742188 42.3927L11.6842 39.5235C14.6989 41.1664 18.0932 42.0337 21.5477 42.0348H21.5566C32.9325 42.0348 42.1919 32.7778 42.1969 21.4006C42.199 15.887 40.054 10.7033 36.1567 6.80267C32.2601 2.90258 27.0778 0.753565 21.5556 0.750977C10.1791 0.750977 0.920178 10.0067 0.915248 21.3844ZM21.5566 42.0348C21.5564 42.0348 21.5561 42.0348 21.5566 42.0348Z" fill="#4B4BF6"/>
</mask>
<g mask="url(#mask0_1446_41265)">
<path d="M0.179594 21.3782C0.1783 25.145 1.16255 28.8226 3.03349 32.0638L0 43.1389L11.3346 40.167C14.4576 41.8701 17.9735 42.7676 21.5518 42.7691H21.561C33.3442 42.7691 42.9371 33.1792 42.9421 21.3947C42.944 15.6831 40.7217 10.3128 36.6853 6.27291C32.6482 2.23298 27.2803 0.00685978 21.561 0.00439453C9.77522 0.00439453 0.184165 9.59236 0.179234 21.3775M6.92909 31.5053L6.50598 30.8333C4.72681 28.0047 3.7878 24.7355 3.78909 21.3791C3.79297 11.584 11.7648 3.61451 21.5672 3.61451C26.3142 3.61636 30.7756 5.46696 34.1314 8.82456C37.4868 12.1824 39.3332 16.6462 39.3319 21.393C39.3275 31.1887 31.3556 39.1588 21.5605 39.1588H21.5536C18.3642 39.157 15.2364 38.3009 12.5086 36.6822L11.8593 36.2973L5.13291 38.0609L6.92909 31.5053ZM21.561 42.7691C21.5607 42.7691 21.5605 42.7691 21.561 42.7691Z" fill="url(#paint0_linear_1446_41265)"/>
<path fill-rule="evenodd" clip-rule="evenodd" d="M16.2158 12.4414C15.8155 11.5517 15.3944 11.5339 15.0137 11.5183C14.7021 11.505 14.3458 11.5059 13.9899 11.5059C13.6335 11.5059 13.0547 11.6396 12.5653 12.1742C12.0755 12.7088 10.6953 14.0012 10.6953 16.6296C10.6953 19.2582 12.6099 21.7981 12.8767 22.1549C13.1439 22.511 16.5727 28.0775 22.0024 30.2187C26.5154 31.9983 27.4338 31.6444 28.4133 31.5552C29.3928 31.4663 31.5742 30.2633 32.0192 29.0157C32.4645 27.7684 32.4645 26.6991 32.331 26.4758C32.1975 26.2532 31.8412 26.1195 31.3069 25.8525C30.7725 25.5853 28.1461 24.2927 27.6565 24.1144C27.1666 23.9364 26.8104 23.8474 26.4541 24.3823C26.098 24.9165 25.0748 26.1195 24.763 26.4759C24.4514 26.8329 24.1397 26.8774 23.6054 26.6102C23.071 26.3421 21.3504 25.7786 19.3092 23.9588C17.721 22.5427 16.6488 20.794 16.337 20.2591C16.0255 19.7249 16.3038 19.4355 16.5716 19.1692C16.8117 18.9298 17.106 18.5454 17.3733 18.2336C17.6398 17.9216 17.7287 17.699 17.9068 17.3426C18.0851 16.986 17.996 16.674 17.8625 16.4068C17.7287 16.1396 16.6909 13.4978 16.2158 12.4414Z" fill="white"/>
</g>
<defs>
<linearGradient id="paint0_linear_1446_41265" x1="21.4713" y1="43.1401" x2="21.4713" y2="0.00569032" gradientUnits="userSpaceOnUse">
<stop stop-color="#F9F9F9"/>
<stop offset="1" stop-color="white"/>
</linearGradient>
</defs>
</svg>
