<svg width="194" height="46" viewBox="0 0 194 46" fill="none" xmlns="http://www.w3.org/2000/svg">
<g clip-path="url(#clip0_1446_41249)">
<path d="M112.318 24.3841C112.318 19.8428 110.388 15.8403 103.871 15.8403C100.523 15.8403 97.8657 16.7859 96.4141 17.6298L97.475 21.2831C98.7986 20.4427 100.91 19.7445 102.911 19.7445C106.218 19.7377 106.761 21.6288 106.761 22.8421V23.1302C99.5497 23.1166 94.9961 25.6279 94.9961 30.7454C94.9961 33.8701 97.3167 36.8016 101.352 36.8016C103.831 36.8016 105.909 35.8052 107.148 34.209H107.273C107.273 34.209 108.094 37.676 112.635 36.3509C112.395 34.9071 112.318 33.3685 112.318 31.5181M106.932 29.1864C106.932 29.5558 106.902 29.9354 106.798 30.2743C106.38 31.6604 104.949 32.8364 103.164 32.8364C101.672 32.8364 100.489 31.9858 100.489 30.1828C100.489 27.4309 103.504 26.6683 106.932 26.6853V29.1864Z" fill="white"/>
<path d="M0 9.65527C0 9.65527 4.70854 29.0779 5.46299 32.2331C6.33868 35.9136 7.92167 37.2659 12.4786 36.3542L15.419 24.3129C16.1667 21.3204 16.6651 19.1887 17.1434 16.1487H17.2276C17.5678 19.2192 18.046 21.3306 18.659 24.3231C18.659 24.3231 19.8547 29.7896 20.4677 32.6602C21.0807 35.5307 22.795 37.3404 27.2577 36.3542L34.2666 9.65867H28.6083L26.2169 21.2018C25.5736 24.5603 24.991 27.1902 24.5397 30.2607H24.4588C24.0513 27.2207 23.5292 24.6959 22.8758 21.4255L20.3835 9.66206H14.4894L11.8252 21.1306C11.0708 24.6179 10.3635 27.4275 9.91556 30.3997H9.83472C9.3733 27.6037 8.76031 24.0689 8.09681 20.6934C8.09681 20.6934 6.51382 12.4953 5.95809 9.66544" fill="white"/>
<path d="M50.3498 24.3841C50.3498 19.8428 48.4199 15.8403 41.9027 15.8403C38.5549 15.8403 35.8975 16.7859 34.4492 17.6298L35.5101 21.2831C36.8338 20.4427 38.9456 19.7445 40.9462 19.7445C44.257 19.7377 44.7959 21.6288 44.7959 22.8421V23.1302C37.5849 23.1166 33.0312 25.6279 33.0312 30.7454C33.0312 33.8701 35.3518 36.8016 39.3834 36.8016C41.8657 36.8016 43.9404 35.8052 45.1832 34.209H45.3044C45.3044 34.209 46.1296 37.676 50.6664 36.3509C50.4273 34.9071 50.3498 33.3685 50.3498 31.5181M44.9676 29.1864C44.9676 29.5558 44.934 29.9354 44.8329 30.2743C44.4153 31.6604 42.9872 32.8364 41.1988 32.8364C39.7067 32.8364 38.5246 31.9858 38.5246 30.1828C38.5246 27.4309 41.539 26.6683 44.9676 26.6853V29.1864Z" fill="white"/>
<path d="M59.3303 30.6809V9.65527H53.9414V36.3508H59.3303" fill="white"/>
<path d="M129.82 9.65527V29.3491C129.82 32.0637 130.329 33.9683 131.413 35.1274C132.36 36.1441 133.923 36.8016 135.799 36.8016C137.392 36.8016 138.958 36.4966 139.699 36.222L139.628 31.9891C139.079 32.1247 138.446 32.2297 137.58 32.2297C135.745 32.2297 135.132 31.047 135.132 28.6102V21.073H139.82V15.9691H135.132V9.65527" fill="white"/>
<path d="M115.91 16.3013V36.3543H121.467V26.0855C121.467 25.533 121.501 25.0518 121.589 24.6078C122 22.4558 123.636 21.0798 125.981 21.0798C126.627 21.0798 127.089 21.151 127.587 21.2222V15.9691C127.166 15.8844 126.88 15.8438 126.358 15.8438C124.283 15.8438 121.929 17.1926 120.935 20.0801H120.78V16.3013" fill="white"/>
<path d="M63.1055 16.3013V36.3543H68.5213V24.5943C68.5213 24.0419 68.5853 23.459 68.7773 22.9506C69.2252 21.7644 70.3198 20.3817 72.0679 20.3817C74.2504 20.3817 75.2743 22.2423 75.2743 24.923V36.3543H80.6833V24.452C80.6833 23.9267 80.7574 23.2929 80.909 22.8252C81.3536 21.4798 82.5324 20.3817 84.1592 20.3817C86.3754 20.3817 87.4397 22.2084 87.4397 25.3636V36.3543H92.8521V24.5435C92.8521 18.3144 89.7097 15.8472 86.1598 15.8472C84.5869 15.8472 83.3475 16.2437 82.2259 16.9351C81.2829 17.518 80.4375 18.3483 79.7032 19.4362H79.6224C78.7669 17.274 76.7528 15.8472 74.1291 15.8472C70.7577 15.8472 69.2421 17.5688 68.3226 19.0261H68.2418V16.3013" fill="white"/>
<path d="M168.95 15.4913C170.021 15.4913 170.9 14.9288 171.018 14.2035L172.076 2.16561C172.076 0.976051 170.695 0 168.95 0C167.209 0 165.828 0.976051 165.828 2.16561L166.886 14.2035C167 14.9288 167.883 15.4913 168.95 15.4913Z" fill="white"/>
<path d="M162.481 19.2499C163.016 18.3213 162.976 17.2673 162.41 16.803L152.578 9.86567C151.558 9.2692 150.022 9.98767 149.153 11.5026C148.284 13.0209 148.436 14.712 149.456 15.3051L160.338 20.4022C161.022 20.6564 161.945 20.1718 162.484 19.2364" fill="white"/>
<path d="M175.416 19.2398C175.951 20.1751 176.878 20.6598 177.554 20.4056L188.443 15.3085C189.467 14.712 189.619 13.0209 188.747 11.506C187.878 9.98766 186.338 9.27257 185.321 9.86904L175.49 16.8064C174.927 17.2707 174.887 18.3247 175.419 19.2533" fill="white"/>
<path d="M168.95 30.5254C170.021 30.5254 170.9 31.0812 171.018 31.8031L172.076 43.8376C172.076 45.0305 170.695 46.0066 168.95 46.0066C167.209 46.0066 165.828 45.0305 165.828 43.8376L166.886 31.8031C167 31.0812 167.883 30.5254 168.95 30.5254Z" fill="white"/>
<path d="M175.416 26.7667C175.951 25.8313 176.878 25.3466 177.554 25.6008L188.443 30.6946C189.467 31.2944 189.619 32.9856 188.747 34.5039C187.878 36.0188 186.338 36.7372 185.321 36.1408L175.49 29.2102C174.927 28.7425 174.887 27.6919 175.419 26.7599" fill="white"/>
<path d="M162.481 26.7597C163.016 27.6951 162.976 28.7423 162.41 29.21L152.578 36.144C151.558 36.7371 150.022 36.0186 149.153 34.5071C148.284 32.9888 148.436 31.2943 149.456 30.6944L160.338 25.6041C161.022 25.3431 161.945 25.8311 162.484 26.7631" fill="white"/>
<path d="M192.274 33.6904C193.237 33.6904 193.998 34.4428 193.998 35.4019C193.998 36.3847 193.237 37.1371 192.26 37.1371C191.287 37.1371 190.516 36.3813 190.516 35.4019C190.516 34.4428 191.287 33.6904 192.26 33.6904M192.254 33.992C191.479 33.992 190.893 34.6258 190.893 35.4019C190.893 36.2017 191.479 36.8253 192.274 36.8253C193.045 36.8389 193.611 36.2051 193.611 35.4155C193.611 34.6292 193.045 33.992 192.26 33.992H192.254ZM191.95 36.3508H191.62V34.5513C191.799 34.5174 191.991 34.497 192.24 34.497C192.54 34.497 192.691 34.5512 192.806 34.6394C192.914 34.7139 192.988 34.8563 192.988 35.0189C192.988 35.246 192.826 35.385 192.634 35.4493V35.4697C192.796 35.5341 192.88 35.673 192.934 35.9001C192.988 36.178 193.021 36.2864 193.062 36.3508H192.715C192.664 36.2864 192.624 36.1238 192.577 35.8764C192.536 35.6832 192.419 35.5951 192.159 35.5951H191.944V36.3508H191.95ZM191.95 35.3375H192.176C192.425 35.3375 192.638 35.2629 192.638 35.046C192.638 34.8732 192.53 34.7546 192.21 34.7546C192.085 34.7546 192.011 34.7648 191.95 34.7783V35.3375Z" fill="white"/>
</g>
<defs>
<clipPath id="clip0_1446_41249">
<rect width="194" height="46" fill="white"/>
</clipPath>
</defs>
</svg>
