<?xml version="1.0" encoding="UTF-8" standalone="no"?>
<svg
   id="eBay_logo"
   data-name="eBay logo"
   version="1.1"
   viewBox="0 0 1000 400.75098"
   sodipodi:docname="eBay.svg"
   width="1000"
   height="400.75098"
   inkscape:version="1.4 (86a8ad7, 2024-10-11)"
   xml:space="preserve"
   xmlns:inkscape="http://www.inkscape.org/namespaces/inkscape"
   xmlns:sodipodi="http://sodipodi.sourceforge.net/DTD/sodipodi-0.dtd"
   xmlns="http://www.w3.org/2000/svg"
   xmlns:svg="http://www.w3.org/2000/svg"><sodipodi:namedview
     id="namedview4"
     pagecolor="#ffffff"
     bordercolor="#000000"
     borderopacity="0.25"
     inkscape:showpageshadow="2"
     inkscape:pageopacity="0.0"
     inkscape:pagecheckerboard="0"
     inkscape:deskcolor="#d1d1d1"
     inkscape:zoom="0.5"
     inkscape:cx="546"
     inkscape:cy="199"
     inkscape:window-width="1366"
     inkscape:window-height="705"
     inkscape:window-x="-8"
     inkscape:window-y="-8"
     inkscape:window-maximized="1"
     inkscape:current-layer="eBay_logo" /><defs
     id="defs1"><style
       id="style1">
      .cls-1 {
        fill: #0968f6;
      }

      .cls-1, .cls-2, .cls-3, .cls-4 {
        stroke-width: 0px;
      }

      .cls-2 {
        fill: #92c821;
      }

      .cls-3 {
        fill: #f02d2d;
      }

      .cls-4 {
        fill: #ffbd14;
      }
    </style></defs><g
     id="g4"><path
       class="cls-4"
       d="m 633.07803,212.53323 c -45.43873,1.48929 -73.6715,9.689 -73.6715,39.61897 0,19.37591 15.44713,40.38162 54.66334,40.38162 52.57698,0 80.64259,-28.65902 80.64259,-75.66331 l 0.003,-5.16994 c -18.43302,0 -41.16414,0.16089 -61.63704,0.83266 z m 111.75103,62.10248 c 0,14.58313 0.42155,28.9782 1.69406,41.94092 h -46.61408 c -1.24325,-10.67368 -1.6972,-21.27945 -1.6972,-31.56656 -25.20195,30.97941 -55.17735,39.88537 -96.76149,39.88537 -61.67674,0 -94.70072,-32.59982 -94.70072,-70.30689 0,-54.61215 44.91583,-73.86739 122.89013,-75.65391 21.32332,-0.48686 45.27419,-0.55894 65.07531,-0.55894 l -0.003,-5.33606 c 0,-36.56098 -23.44364,-51.59335 -64.06765,-51.59335 -30.15876,0 -52.38579,12.48057 -54.6764,34.0468 h -52.65168 c 5.57217,-53.77165 62.06643,-67.37115 111.74005,-67.37115 59.50837,0 109.77228,21.17288 109.77228,84.11481 z"
       id="path1"
       style="fill:#ffbc13;fill-opacity:1" /><path
       class="cls-3"
       d="m 199.63633,185.86602 c -1.94427,-46.87735 -35.77951,-64.41973 -71.94139,-64.41973 -38.99421,0 -70.12667,19.7327 -75.58026,64.41973 z M 51.034408,219.1909 c 2.704332,45.48365 34.069782,72.38437 77.197532,72.38437 29.88033,0 56.45979,-12.17498 65.35948,-38.66041 h 51.68424 c -10.05205,53.73979 -67.15384,71.98058 -116.303,71.98058 C 39.606424,324.89544 0,275.67889 0,209.30653 0,136.24203 40.965642,88.12194 129.78809,88.12194 c 70.69867,0 122.49992,36.99926 122.49992,117.75572 v 13.31324 z"
       id="path2"
       style="fill:#f12c2d;fill-opacity:1" /><path
       class="cls-1"
       d="m 380.83181,290.6235 c 46.57228,0 78.44078,-33.52181 78.44078,-84.10854 0,-50.58203 -31.8685,-84.10854 -78.44078,-84.10854 -46.31058,0 -78.44392,33.52651 -78.44392,84.10854 0,50.58673 32.13334,84.10854 78.44392,84.10854 z M 252.2854,0 h 50.10249 l -0.005,125.87707 c 24.55682,-29.25975 58.38892,-37.75513 91.68976,-37.75513 55.83503,0 117.85132,37.6773 117.85132,119.02875 0,68.12232 -49.32155,117.74475 -118.78114,117.74475 -36.35726,0 -70.58062,-13.04265 -91.68663,-38.88294 0,10.32107 -0.57618,20.72364 -1.70503,30.56413 h -49.17162 c 0.85513,-15.90944 1.70555,-35.7184 1.70555,-51.74693 z"
       id="path3"
       style="fill:#0968f6;fill-opacity:1" /><path
       class="cls-2"
       d="M 1000,96.45747 845.05541,400.75099 H 788.94926 L 833.49578,316.25589 716.89033,96.45747 h 58.6266 l 85.80469,171.73057 85.56283,-171.73057 z"
       id="path4"
       style="fill:#93c822;fill-opacity:1" /></g></svg>
